<svg width="2069" height="1682" viewBox="0 0 2069 1682" fill="none" xmlns="http://www.w3.org/2000/svg">
<path d="M766 1441H840V1009H766.5L659 1117V1333.5L766 1441Z" fill="#252930"/>
<path d="M1021 1009L1128.5 1117V1268H867.5V1193H962V1117H867.5V1009H1021Z" fill="#252930"/>
<path d="M1110 1340V1387L1056.5 1441H867.5V1340H1110Z" fill="#252930"/>
<path d="M971.5 1579L975.567 1592.49C988.345 1634.87 955.945 1677.35 911.693 1676.23L902.5 1676L936.7 1628.15L971.5 1579Z" fill="#252930"/>
<path d="M861.5 1555V1600.12C861.5 1641.82 822.799 1672.73 782.135 1663.52L760 1658.5L803.5 1614.5L861.5 1555Z" fill="#252930"/>
<path d="M749.438 1519.36C750.278 1518.91 751.206 1519.78 750.819 1520.65L737.5 1550.5L734.397 1557.14C724.525 1578.25 711.422 1597.74 695.604 1614.86C663.79 1649.3 608.511 1646.67 580.217 1609.29C580.103 1609.14 580.151 1608.92 580.318 1608.83L749.438 1519.36Z" fill="#252930"/>
<path d="M655.33 1443.89C656.281 1443.62 657.002 1444.75 656.36 1445.5L629 1477.5C602.169 1506.32 570.948 1530.71 536.496 1549.78L522.711 1557.4C477.315 1582.52 420.143 1563.62 398.674 1516.38C398.583 1516.18 398.692 1515.95 398.906 1515.89L655.33 1443.89Z" fill="#252930"/>
<path d="M553.5 1358.5L508.021 1388.04C499.352 1393.67 490.276 1398.65 480.867 1402.93L450.5 1416.75L433.627 1424.43C415.346 1432.75 395.766 1437.85 375.75 1439.5L345.5 1442L308.945 1440.06C272.335 1438.11 238.217 1420.91 214.878 1392.64L190 1362.5L553.5 1358.5Z" fill="#252930"/>
<path d="M27.5 1133L289.5 1194L544.537 1255.21C545.675 1255.48 545.498 1257.15 544.327 1257.18L340 1262H130L119.778 1257.29C81.3242 1239.56 51.936 1206.69 38.6083 1166.5L27.5 1133Z" fill="#252930"/>
<path d="M0 817L438 1092.5L506.199 1136.57C507.155 1137.19 506.5 1138.67 505.399 1138.38L398.5 1110L252.5 1063.5L71.5 999.5L47.8337 974.864C23.6721 949.712 8.82882 917.06 5.76335 882.318L0 817Z" fill="#252930"/>
<path d="M81 447L561 1080L442.5 975L383.25 921.5L324 868L87.5 647C72.1573 618.273 65.3967 585.741 68.0236 553.28L71 516.5L81 447Z" fill="#252930"/>
<path d="M287 0L637 977L508.852 839.616C483.364 812.292 461.02 782.196 442.237 749.893L329.5 556L269.5 421.5L244 341L232 283L227.944 241.089C221.765 177.238 233.102 112.91 260.737 55.0188L287 0Z" fill="#252930"/>
<path d="M1327.8 1251.4V1230.7H1355.1V1292.5H1332.6C1332.6 1292.5 1315.5 1255.9 1273.8 1255.9C1232.1 1255.9 1211.4 1289.5 1211.4 1333.6C1211.4 1381.6 1239.9 1413.4 1284.6 1413.4C1317.6 1413.4 1339.2 1393.3 1339.2 1393.3L1354.2 1413.4C1354.2 1413.4 1331.4 1440.7 1281.9 1440.7C1221.9 1440.7 1182 1396 1182 1335.7C1182 1273.6 1222.8 1230.7 1270.5 1230.7C1308.9 1230.7 1327.8 1251.4 1327.8 1251.4ZM1557.67 1413.4V1366H1584.97V1440.7H1406.17V1413.4H1432.27V1258H1406.17V1230.7H1576.57V1231.6V1296.1H1549.27V1258H1459.57V1322.2H1503.07V1296.1H1530.37V1375.6H1503.07V1349.5H1459.57V1413.4H1557.67ZM1771.2 1413.4V1366H1798.5V1440.7H1635.9V1413.4H1662V1258H1635.9V1230.7H1715.4V1258H1689.3V1413.4H1771.2ZM1984.82 1413.4V1366H2012.12V1440.7H1849.52V1413.4H1875.62V1258H1849.52V1230.7H1929.02V1258H1902.92V1413.4H1984.82Z" fill="#252930"/>
<path d="M1282.29 1550.45V1629H1269.64L1232.63 1575.5H1231.98V1629H1217.75V1550.45H1230.48L1267.45 1603.99H1268.14V1550.45H1282.29ZM1316.89 1550.45V1629H1302.66V1550.45H1316.89ZM1333.7 1562.38V1550.45H1396.37V1562.38H1372.09V1629H1357.98V1562.38H1333.7ZM1455.05 1629H1439.86L1467.51 1550.45H1485.08L1512.77 1629H1497.58L1476.6 1566.56H1475.99L1455.05 1629ZM1455.55 1598.2H1496.97V1609.63H1455.55V1598.2ZM1576.9 1575.54C1576.26 1573.47 1575.38 1571.61 1574.25 1569.98C1573.16 1568.31 1571.83 1566.89 1570.27 1565.72C1568.73 1564.54 1566.97 1563.66 1564.97 1563.07C1562.98 1562.46 1560.81 1562.15 1558.45 1562.15C1554.23 1562.15 1550.48 1563.21 1547.18 1565.34C1543.88 1567.46 1541.28 1570.58 1539.39 1574.69C1537.53 1578.78 1536.59 1583.77 1536.59 1589.65C1536.59 1595.58 1537.53 1600.61 1539.39 1604.72C1541.26 1608.84 1543.85 1611.97 1547.18 1614.12C1550.5 1616.24 1554.36 1617.3 1558.76 1617.3C1562.75 1617.3 1566.2 1616.54 1569.12 1615C1572.06 1613.47 1574.32 1611.29 1575.9 1608.48C1577.49 1605.64 1578.28 1602.32 1578.28 1598.51L1581.5 1599.01H1560.18V1587.89H1592.05V1597.32C1592.05 1604.05 1590.62 1609.86 1587.75 1614.77C1584.89 1619.68 1580.95 1623.46 1575.94 1626.12C1570.93 1628.76 1565.18 1630.07 1558.68 1630.07C1551.45 1630.07 1545.09 1628.45 1539.62 1625.2C1534.18 1621.93 1529.92 1617.29 1526.85 1611.28C1523.81 1605.25 1522.29 1598.09 1522.29 1589.8C1522.29 1583.46 1523.18 1577.8 1524.97 1572.81C1526.79 1567.83 1529.32 1563.6 1532.57 1560.12C1535.81 1556.62 1539.62 1553.96 1543.99 1552.14C1548.37 1550.3 1553.12 1549.38 1558.26 1549.38C1562.61 1549.38 1566.66 1550.02 1570.42 1551.3C1574.18 1552.55 1577.51 1554.34 1580.43 1556.67C1583.37 1558.99 1585.79 1561.76 1587.68 1564.95C1589.57 1568.15 1590.81 1571.68 1591.4 1575.54H1576.9ZM1618.33 1629H1603.14L1630.79 1550.45H1648.36L1676.05 1629H1660.86L1639.88 1566.56H1639.27L1618.33 1629ZM1618.83 1598.2H1660.25V1609.63H1618.83V1598.2ZM1691.26 1629V1550.45H1720.71C1726.74 1550.45 1731.81 1551.5 1735.9 1553.6C1740.01 1555.7 1743.12 1558.64 1745.22 1562.42C1747.34 1566.18 1748.4 1570.56 1748.4 1575.58C1748.4 1580.61 1747.33 1584.98 1745.18 1588.69C1743.06 1592.37 1739.92 1595.22 1735.78 1597.24C1731.64 1599.24 1726.55 1600.24 1720.52 1600.24H1699.54V1588.42H1718.6C1722.13 1588.42 1725.02 1587.94 1727.27 1586.97C1729.52 1585.97 1731.18 1584.52 1732.25 1582.63C1733.35 1580.71 1733.9 1578.36 1733.9 1575.58C1733.9 1572.79 1733.35 1570.41 1732.25 1568.44C1731.15 1566.45 1729.48 1564.94 1727.23 1563.92C1724.98 1562.87 1722.08 1562.34 1718.52 1562.34H1705.48V1629H1691.26ZM1731.83 1593.41L1751.28 1629H1735.4L1716.3 1593.41H1731.83ZM1762.91 1562.38V1550.45H1825.57V1562.38H1801.3V1629H1787.18V1562.38H1762.91ZM1843.11 1629H1827.92L1855.57 1550.45H1873.14L1900.83 1629H1885.64L1864.66 1566.56H1864.05L1843.11 1629ZM1843.61 1598.2H1885.03V1609.63H1843.61V1598.2ZM1916.03 1629V1550.45H1930.26V1617.07H1964.86V1629H1916.03ZM1995.11 1629H1979.92L2007.57 1550.45H2025.14L2052.83 1629H2037.64L2016.66 1566.56H2016.05L1995.11 1629ZM1995.6 1598.2H2037.03V1609.63H1995.6V1598.2Z" fill="#252930"/>
</svg>
